<?xml version="1.0" standalone="no"?>
<!DOCTYPE svg PUBLIC "-//W3C//DTD SVG 20010904//EN"
 "http://www.w3.org/TR/2001/REC-SVG-20010904/DTD/svg10.dtd">
<svg version="1.0" xmlns="http://www.w3.org/2000/svg"
 width="225.000000pt" height="225.000000pt" viewBox="0 0 225.000000 225.000000"
 preserveAspectRatio="xMidYMid meet">
<metadata>
Created by potrace 1.14, written by Peter Selinger 2001-2017
</metadata>
<g transform="translate(0.000000,225.000000) scale(0.100000,-0.100000)"
fill="#000000" stroke="none">
<path d="M930 2145 c-223 -56 -370 -148 -489 -308 -43 -58 -100 -163 -118
-217 -52 -157 -58 -194 -57 -340 1 -136 3 -151 33 -238 45 -132 99 -217 211
-336 66 -70 153 -132 257 -182 52 -25 164 -61 213 -69 14 -2 81 -5 148 -5 182
-1 311 35 457 126 49 31 136 103 124 104 -3 0 -44 -18 -91 -40 -283 -132 -617
-102 -853 79 -207 158 -314 368 -314 616 0 278 161 540 419 682 51 28 116 53
194 73 87 23 281 25 351 4 56 -16 79 -18 70 -5 -7 12 -141 56 -213 70 -90 19
-236 12 -342 -14z"/>
<path d="M1185 2047 c-44 -4 -105 -14 -135 -23 -50 -14 -178 -71 -190 -85 -3
-3 -27 -21 -53 -41 -97 -74 -208 -239 -239 -358 -5 -19 -13 -51 -18 -70 -5
-19 -9 -62 -9 -95 l0 -60 20 70 c61 213 188 376 349 444 285 122 570 60 763
-167 99 -117 150 -264 150 -432 -1 -177 -62 -324 -190 -459 -35 -36 -63 -66
-63 -68 0 -6 66 19 93 36 104 66 219 253 268 435 27 103 23 286 -9 381 -19 59
-62 155 -72 165 -3 3 -22 28 -43 56 -35 48 -72 86 -143 143 -39 31 -178 97
-234 110 -83 20 -164 26 -245 18z"/>
<path d="M1970 1768 c0 -3 11 -25 24 -49 65 -118 102 -309 92 -472 -15 -235
-106 -439 -274 -612 -58 -60 -157 -136 -166 -128 -3 4 -6 2 -6 -4 0 -14 -101
-66 -190 -99 -313 -113 -683 -43 -934 176 -61 53 -166 174 -166 191 0 4 -6 14
-13 21 -28 28 -80 134 -106 216 -41 126 -56 258 -45 377 5 53 7 98 3 101 -3 2
-17 -36 -30 -84 -21 -75 -24 -109 -24 -247 0 -173 15 -259 70 -394 28 -69 82
-168 102 -189 7 -7 13 -17 13 -22 0 -17 187 -196 250 -238 267 -184 562 -228
911 -134 51 13 249 110 249 122 0 6 5 10 11 10 36 0 213 175 283 280 55 82
111 205 138 305 25 92 36 340 18 428 -30 149 -72 263 -133 358 -31 49 -77 100
-77 87z"/>
</g>
</svg>
